<svg width="56" height="55" viewBox="0 0 56 55" fill="none" xmlns="http://www.w3.org/2000/svg">
<g clip-path="url(#clip0)">
<path d="M48.3419 24.1985C48.3415 23.6843 47.9502 23.2464 47.419 23.166L44.7024 22.7545L43.3034 19.5286L44.9183 17.3999C45.2342 16.9837 45.1865 16.4096 44.8061 16.0461L39.9526 11.4088C39.5721 11.0452 38.9715 11.0002 38.5367 11.3025L36.3124 12.8474L32.936 11.5116L32.5037 8.91561C32.4192 8.408 31.9612 8.03435 31.4235 8.03435H28C27.396 8.03435 26.9062 8.50253 26.9062 9.08011C26.9062 9.65768 27.396 10.1259 28 10.1259H30.4903L30.872 12.4186C30.9318 12.7778 31.1825 13.0814 31.534 13.2205L36.0418 15.0038C36.3933 15.1428 36.7952 15.0973 37.1027 14.8836L39.067 13.5194L42.5995 16.8946L41.1733 18.7745C40.95 19.0689 40.9026 19.4531 41.0483 19.7891L42.9165 24.0964C43.0621 24.4323 43.3799 24.6718 43.7557 24.7287L46.1547 25.0921L46.1568 29.867L43.7593 30.232C43.3836 30.2892 43.0661 30.5289 42.9206 30.865L41.0553 35.175C40.9099 35.511 40.9574 35.8952 41.181 36.1894L42.6079 38.0674L39.0779 41.4448L37.1116 40.0814C36.8037 39.8678 36.4019 39.8226 36.0505 39.9619L31.5456 41.7479C31.1942 41.8872 30.9437 42.1911 30.8842 42.5503L30.504 44.845H28C27.396 44.845 26.9062 45.3133 26.9062 45.8908C26.9062 46.4683 27.396 46.9366 28 46.9366H31.4382C31.9762 46.9366 32.4343 46.5625 32.5185 46.0544L32.949 43.4555L36.323 42.1179L38.5494 43.662C38.9846 43.9639 39.5851 43.9185 39.9652 43.5547L44.8153 38.9142C45.1956 38.5504 45.2426 37.9764 44.9267 37.5605L43.3108 35.4337L44.7079 32.2054L47.4229 31.7922C47.954 31.7113 48.345 31.2731 48.3447 30.7589L48.3419 24.1985Z" fill="#86BE26"/>
<path d="M27.9898 34.3286C27.3903 34.3336 26.906 34.7999 26.906 35.3744C26.906 35.9518 27.3958 36.4201 27.9998 36.4201C28.0138 36.4201 28.0363 36.4197 28.0504 36.4192C28.654 36.397 29.1245 35.9113 29.1012 35.334C29.0783 34.7645 28.5815 34.322 27.9898 34.3286Z" fill="#86BE26"/>
<path d="M27.9998 18.5528C27.3958 18.5528 26.906 19.021 26.906 19.5985C26.906 20.1761 27.3958 20.6443 27.9998 20.6443C31.9459 20.6443 35.1564 23.7139 35.1564 27.4869C35.1564 30.0335 33.6913 32.3544 31.333 33.5437C30.7987 33.8131 30.5939 34.4457 30.8758 34.9566C31.0717 35.3118 31.4513 35.5147 31.8442 35.5147C32.0161 35.5147 32.1908 35.4758 32.3534 35.3937C35.4317 33.8414 37.3439 30.8117 37.3439 27.4869C37.3439 22.5606 33.1522 18.5528 27.9998 18.5528Z" fill="#86BE26"/>
<path d="M6.34375 47.1466H1.09375C0.489781 47.1466 0 47.6149 0 48.1923V53.212C0 53.7895 0.489781 54.2578 1.09375 54.2578H6.34375C6.94772 54.2578 7.4375 53.7895 7.4375 53.212V48.1923C7.4375 47.6149 6.94772 47.1466 6.34375 47.1466ZM5.25 52.1662H2.1875V49.2381H5.25V52.1662Z" fill="#86BE26"/>
<path d="M54.9062 47.1466H49.6562C49.0523 47.1466 48.5625 47.6149 48.5625 48.1923V53.212C48.5625 53.7895 49.0523 54.2578 49.6562 54.2578H54.9062C55.5102 54.2578 56 53.7895 56 53.212V48.1923C56 47.6149 55.5102 47.1466 54.9062 47.1466ZM53.8125 52.1662H50.75V49.2381H53.8125V52.1662Z" fill="#86BE26"/>
<path d="M6.34375 0.714783H1.09375C0.489781 0.714783 0 1.18297 0 1.76054V6.7802C0 7.35777 0.489781 7.82596 1.09375 7.82596H6.34375C6.94772 7.82596 7.4375 7.35777 7.4375 6.7802V1.76054C7.4375 1.18297 6.94772 0.714783 6.34375 0.714783ZM5.25 5.73444H2.1875V2.8063H5.25V5.73444Z" fill="#86BE26"/>
<path d="M54.9062 0.714783H49.6562C49.0523 0.714783 48.5625 1.18297 48.5625 1.76054V6.7802C48.5625 7.35777 49.0523 7.82596 49.6562 7.82596H54.9062C55.5102 7.82596 56 7.35777 56 6.7802V1.76054C56 1.18297 55.5102 0.714783 54.9062 0.714783ZM53.8125 5.73444H50.75V2.8063H53.8125V5.73444Z" fill="#86BE26"/>
<path d="M52.2812 41.2461C51.6773 41.2461 51.1875 41.7144 51.1875 42.2918V43.3376C51.1875 43.9151 51.6773 44.3834 52.2812 44.3834C52.8852 44.3834 53.375 43.9151 53.375 43.3376V42.2918C53.375 41.7144 52.8852 41.2461 52.2812 41.2461Z" fill="#86BE26"/>
<path d="M52.2812 36.0173C51.6773 36.0173 51.1875 36.4856 51.1875 37.0631V38.1088C51.1875 38.6863 51.6773 39.1546 52.2812 39.1546C52.8852 39.1546 53.375 38.6863 53.375 38.1088V37.0631C53.375 36.4856 52.8852 36.0173 52.2812 36.0173Z" fill="#86BE26"/>
<path d="M52.2812 10.7564C51.6773 10.7564 51.1875 11.2246 51.1875 11.8022V11.9638C51.1875 12.5414 51.6773 13.0096 52.2812 13.0096C52.8852 13.0096 53.375 12.5414 53.375 11.9638V11.8022C53.375 11.2246 52.8852 10.7564 52.2812 10.7564Z" fill="#86BE26"/>
<path d="M52.2812 30.7884C51.6773 30.7884 51.1875 31.2567 51.1875 31.8342V32.88C51.1875 33.4574 51.6773 33.9257 52.2812 33.9257C52.8852 33.9257 53.375 33.4574 53.375 32.88V31.8342C53.375 31.2567 52.8852 30.7884 52.2812 30.7884Z" fill="#86BE26"/>
<path d="M52.2812 15.102C51.6773 15.102 51.1875 15.5702 51.1875 16.1478V17.1936C51.1875 17.7711 51.6773 18.2393 52.2812 18.2393C52.8852 18.2393 53.375 17.7711 53.375 17.1936V16.1478C53.375 15.5702 52.8852 15.102 52.2812 15.102Z" fill="#86BE26"/>
<path d="M52.2812 25.5596C51.6773 25.5596 51.1875 26.0278 51.1875 26.6054V27.6512C51.1875 28.2287 51.6773 28.6969 52.2812 28.6969C52.8852 28.6969 53.375 28.2287 53.375 27.6512V26.6054C53.375 26.0278 52.8852 25.5596 52.2812 25.5596Z" fill="#86BE26"/>
<path d="M52.2812 20.3309C51.6773 20.3309 51.1875 20.7991 51.1875 21.3766V22.4224C51.1875 23 51.6773 23.4682 52.2812 23.4682C52.8852 23.4682 53.375 23 53.375 22.4224V21.3766C53.375 20.7991 52.8852 20.3309 52.2812 20.3309Z" fill="#86BE26"/>
<path d="M3.71875 25.5596C3.11478 25.5596 2.625 26.0278 2.625 26.6054V27.6512C2.625 28.2287 3.11478 28.6969 3.71875 28.6969C4.32272 28.6969 4.8125 28.2287 4.8125 27.6512V26.6054C4.8125 26.0278 4.32272 25.5596 3.71875 25.5596Z" fill="#86BE26"/>
<path d="M3.71875 30.7884C3.11478 30.7884 2.625 31.2567 2.625 31.8342V32.88C2.625 33.4574 3.11478 33.9257 3.71875 33.9257C4.32272 33.9257 4.8125 33.4574 4.8125 32.88V31.8342C4.8125 31.2567 4.32272 30.7884 3.71875 30.7884Z" fill="#86BE26"/>
<path d="M3.71875 10.7564C3.11478 10.7564 2.625 11.2246 2.625 11.8022V11.9638C2.625 12.5414 3.11478 13.0096 3.71875 13.0096C4.32272 13.0096 4.8125 12.5414 4.8125 11.9638V11.8022C4.8125 11.2246 4.32272 10.7564 3.71875 10.7564Z" fill="#86BE26"/>
<path d="M3.71875 20.3309C3.11478 20.3309 2.625 20.7991 2.625 21.3766V22.4224C2.625 23 3.11478 23.4682 3.71875 23.4682C4.32272 23.4682 4.8125 23 4.8125 22.4224V21.3766C4.8125 20.7991 4.32272 20.3309 3.71875 20.3309Z" fill="#86BE26"/>
<path d="M3.71875 36.0173C3.11478 36.0173 2.625 36.4856 2.625 37.0631V38.1088C2.625 38.6863 3.11478 39.1546 3.71875 39.1546C4.32272 39.1546 4.8125 38.6863 4.8125 38.1088V37.0631C4.8125 36.4856 4.32272 36.0173 3.71875 36.0173Z" fill="#86BE26"/>
<path d="M3.71875 15.102C3.11478 15.102 2.625 15.5702 2.625 16.1478V17.1936C2.625 17.7711 3.11478 18.2393 3.71875 18.2393C4.32272 18.2393 4.8125 17.7711 4.8125 17.1936V16.1478C4.8125 15.5702 4.32272 15.102 3.71875 15.102Z" fill="#86BE26"/>
<path d="M3.71875 41.2461C3.11478 41.2461 2.625 41.7144 2.625 42.2918V43.3376C2.625 43.9151 3.11478 44.3834 3.71875 44.3834C4.32272 44.3834 4.8125 43.9151 4.8125 43.3376V42.2918C4.8125 41.7144 4.32272 41.2461 3.71875 41.2461Z" fill="#86BE26"/>
<path d="M34.4785 49.7392H33.3848C32.7808 49.7392 32.291 50.2075 32.291 50.7849C32.291 51.3624 32.7808 51.8307 33.3848 51.8307H34.4785C35.0825 51.8307 35.5723 51.3624 35.5723 50.7849C35.5723 50.2075 35.0825 49.7392 34.4785 49.7392Z" fill="#86BE26"/>
<path d="M23.541 49.7392H22.4473C21.8433 49.7392 21.3535 50.2075 21.3535 50.7849C21.3535 51.3624 21.8433 51.8307 22.4473 51.8307H23.541C24.145 51.8307 24.6348 51.3624 24.6348 50.7849C24.6348 50.2075 24.145 49.7392 23.541 49.7392Z" fill="#86BE26"/>
<path d="M29.0098 49.7392H27.916C27.312 49.7392 26.8223 50.2075 26.8223 50.7849C26.8223 51.3624 27.312 51.8307 27.916 51.8307H29.0098C29.6137 51.8307 30.1035 51.3624 30.1035 50.7849C30.1035 50.2075 29.6137 49.7392 29.0098 49.7392Z" fill="#86BE26"/>
<path d="M18.0723 49.7392H16.9785C16.3745 49.7392 15.8848 50.2075 15.8848 50.7849C15.8848 51.3624 16.3745 51.8307 16.9785 51.8307H18.0723C18.6762 51.8307 19.166 51.3624 19.166 50.7849C19.166 50.2075 18.6762 49.7392 18.0723 49.7392Z" fill="#86BE26"/>
<path d="M39.9473 49.7392H38.8535C38.2495 49.7392 37.7598 50.2075 37.7598 50.7849C37.7598 51.3624 38.2495 51.8307 38.8535 51.8307H39.9473C40.5512 51.8307 41.041 51.3624 41.041 50.7849C41.041 50.2075 40.5512 49.7392 39.9473 49.7392Z" fill="#86BE26"/>
<path d="M12.6035 49.7392H11.5098C10.9058 49.7392 10.416 50.2075 10.416 50.7849C10.416 51.3624 10.9058 51.8307 11.5098 51.8307H12.6035C13.2075 51.8307 13.6973 51.3624 13.6973 50.7849C13.6973 50.2075 13.2075 49.7392 12.6035 49.7392Z" fill="#86BE26"/>
<path d="M44.491 49.7392H44.322C43.7181 49.7392 43.2283 50.2075 43.2283 50.7849C43.2283 51.3624 43.7181 51.8307 44.322 51.8307H44.491C45.095 51.8307 45.5848 51.3624 45.5848 50.7849C45.5848 50.2075 45.0951 49.7392 44.491 49.7392Z" fill="#86BE26"/>
<path d="M34.4785 3.30739H33.3848C32.7808 3.30739 32.291 3.77558 32.291 4.35315C32.291 4.93072 32.7807 5.39891 33.3848 5.39891H34.4785C35.0825 5.39891 35.5723 4.93072 35.5723 4.35315C35.5723 3.77558 35.0825 3.30739 34.4785 3.30739Z" fill="#86BE26"/>
<path d="M29.0098 3.30739H27.916C27.312 3.30739 26.8223 3.77558 26.8223 4.35315C26.8223 4.93072 27.3119 5.39891 27.916 5.39891H29.0098C29.6137 5.39891 30.1035 4.93072 30.1035 4.35315C30.1035 3.77558 29.6137 3.30739 29.0098 3.30739Z" fill="#86BE26"/>
<path d="M44.4913 3.30739H44.3223C43.7183 3.30739 43.2285 3.77558 43.2285 4.35315C43.2285 4.93072 43.7182 5.39891 44.3223 5.39891H44.4913C45.0952 5.39891 45.585 4.93072 45.585 4.35315C45.585 3.77558 45.0952 3.30739 44.4913 3.30739Z" fill="#86BE26"/>
<path d="M39.9473 3.30739H38.8535C38.2495 3.30739 37.7598 3.77558 37.7598 4.35315C37.7598 4.93072 38.2494 5.39891 38.8535 5.39891H39.9473C40.5512 5.39891 41.041 4.93072 41.041 4.35315C41.041 3.77558 40.5512 3.30739 39.9473 3.30739Z" fill="#86BE26"/>
<path d="M23.541 3.30739H22.4473C21.8433 3.30739 21.3535 3.77558 21.3535 4.35315C21.3535 4.93072 21.8432 5.39891 22.4473 5.39891H23.541C24.145 5.39891 24.6348 4.93072 24.6348 4.35315C24.6348 3.77558 24.145 3.30739 23.541 3.30739Z" fill="#86BE26"/>
<path d="M18.0723 3.30739H16.9785C16.3745 3.30739 15.8848 3.77558 15.8848 4.35315C15.8848 4.93072 16.3744 5.39891 16.9785 5.39891H18.0723C18.6762 5.39891 19.166 4.93072 19.166 4.35315C19.166 3.77558 18.6762 3.30739 18.0723 3.30739Z" fill="#86BE26"/>
<path d="M12.6035 3.30739H11.5098C10.9058 3.30739 10.416 3.77558 10.416 4.35315C10.416 4.93072 10.9058 5.39891 11.5098 5.39891H12.6035C13.2075 5.39891 13.6973 4.93072 13.6973 4.35315C13.6973 3.77558 13.2075 3.30739 12.6035 3.30739Z" fill="#86BE26"/>
<path d="M17.4127 23.5051C17.2092 23.3106 16.9271 23.1987 16.6394 23.1987C16.3507 23.1987 16.0696 23.3106 15.8661 23.5051C15.6616 23.6996 15.5457 23.9684 15.5457 24.2444C15.5457 24.5195 15.6616 24.7893 15.8661 24.9838C16.0696 25.1783 16.3507 25.2902 16.6394 25.2902C16.9271 25.2902 17.2092 25.1783 17.4127 24.9838C17.616 24.7893 17.7332 24.5195 17.7332 24.2444C17.7332 23.9694 17.6161 23.6996 17.4127 23.5051Z" fill="#86BE26"/>
<path d="M22.389 7.52989H17.889C16.5967 7.52989 15.5452 8.53518 15.5452 9.77085V20.6193C15.5452 21.1968 16.0349 21.665 16.6389 21.665C17.2429 21.665 17.7327 21.1968 17.7327 20.6193V16.0753H22.5452V37.1964H17.7327V28.323C17.7327 27.7455 17.2429 27.2772 16.6389 27.2772C16.0349 27.2772 15.5452 27.7455 15.5452 28.323V38.2421C15.5452 38.3864 15.5763 38.5291 15.6369 38.6613L19.1369 46.3103C19.3111 46.691 19.7044 46.9369 20.1389 46.9369C20.5735 46.9369 20.9668 46.6909 21.1409 46.3103L24.6409 38.6613C24.7015 38.5291 24.7327 38.3864 24.7327 38.2421V9.77085C24.7328 8.53518 23.6814 7.52989 22.389 7.52989ZM20.139 43.282L18.3114 39.2879H21.9666L20.139 43.282ZM22.5454 13.9838H17.7328V13.9837V9.77085C17.7328 9.68845 17.8029 9.62141 17.8891 9.62141H22.3891C22.4753 9.62141 22.5454 9.68845 22.5454 9.77085V13.9838Z" fill="#86BE26"/>
</g>
<defs>
<clipPath id="clip0">
<rect width="56" height="53.543" fill="white" transform="translate(0 0.714783)"/>
</clipPath>
</defs>
</svg>
